<svg width="16" height="16" viewBox="0 0 16 16" fill="none" xmlns="http://www.w3.org/2000/svg">
<path d="M7.27252 2.90942C7.27252 3.31123 6.94679 3.63696 6.54498 3.63696H6.04595L5.8067 3.64966C5.25237 3.70773 4.73236 3.956 4.33697 4.35571C3.88514 4.8127 3.63306 5.43085 3.63677 6.07349V9.92798C3.63333 10.5703 3.88519 11.188 4.33697 11.6448C4.78879 12.1014 5.40354 12.3599 6.04595 12.3635H9.95416C10.5965 12.3599 11.2114 12.1014 11.6631 11.6448C12.1149 11.188 12.3667 10.5704 12.3633 9.92798V9.45435C12.3633 9.05254 12.6891 8.72681 13.0909 8.72681C13.4927 8.72681 13.8184 9.05254 13.8184 9.45435V9.92017L13.8145 10.1125C13.7721 11.0708 13.3752 11.9829 12.6973 12.6682C11.9743 13.399 10.9899 13.8128 9.96197 13.8186H6.03814C5.01011 13.8129 4.02586 13.3989 3.30279 12.6682C2.57977 11.9372 2.17618 10.9482 2.1817 9.92017V6.07739C2.17692 5.0506 2.57986 4.06354 3.30181 3.33325C4.02498 2.60188 5.00965 2.18751 6.03814 2.18188H6.54498C6.94679 2.18188 7.27252 2.50762 7.27252 2.90942Z" fill="#D9D9D9"/>
<path d="M13.0907 5.81827V2.90918H10.1816M13.0907 2.90918L8.72705 7.27282" stroke="#D9D9D9" stroke-width="1.45455" stroke-linecap="round"/>
</svg>
